<?xml version="1.0" standalone="no"?>
<!DOCTYPE svg PUBLIC "-//W3C//DTD SVG 20010904//EN"
 "http://www.w3.org/TR/2001/REC-SVG-20010904/DTD/svg10.dtd">
<svg version="1.0" xmlns="http://www.w3.org/2000/svg"
 width="581.000000pt" height="430.000000pt" viewBox="0 0 581.000000 430.000000"
 preserveAspectRatio="xMidYMid meet">

<g transform="translate(0.000000,430.000000) scale(0.100000,-0.100000)"
fill="#000000" stroke="none">
<path d="M2729 4173 c-1 -5 0 -38 1 -74 1 -41 -6 -95 -18 -140 -42 -153 -40
-165 42 -284 25 -37 51 -85 58 -107 11 -36 10 -45 -9 -80 -25 -45 -21 -68 11
-68 16 0 29 12 45 41 31 54 25 119 -15 183 -83 133 -88 162 -59 342 14 87 14
121 -1 177 -5 17 -53 25 -55 10z"/>
<path d="M2945 4021 c-3 -6 -9 -41 -12 -78 -7 -82 4 -112 76 -211 28 -38 54
-84 57 -100 6 -28 3 -32 -35 -51 -42 -22 -46 -28 -35 -55 9 -23 27 -20 83 14
81 50 78 81 -24 230 l-58 85 -1 85 c-1 79 -2 85 -23 88 -11 2 -24 -2 -28 -7z"/>
<path d="M2492 3838 c-17 -17 -15 -132 4 -176 18 -45 62 -92 85 -92 9 0 22 7
29 15 11 13 8 21 -23 48 -40 37 -62 102 -53 156 8 48 -16 75 -42 49z"/>
<path d="M2560 3330 c-384 -52 -584 -142 -664 -299 -34 -66 -32 -127 8 -239
70 -193 172 -347 347 -524 l116 -118 -72 -107 c-40 -60 -97 -139 -129 -178
-58 -73 -64 -90 -33 -109 24 -15 58 25 185 214 53 80 100 149 104 154 4 6 24
3 50 -7 104 -39 214 -51 473 -51 271 -1 334 8 504 69 39 14 76 23 81 20 5 -3
67 -89 136 -191 104 -153 130 -185 147 -182 12 2 23 10 25 18 1 9 -53 100
-122 203 l-124 187 60 32 c152 81 231 192 355 497 63 154 78 243 50 297 -28
55 -103 112 -219 168 -177 85 -317 123 -554 151 -181 21 -547 18 -724 -5z
m675 -44 c261 -26 581 -127 676 -213 63 -57 71 -141 22 -238 -37 -74 -157
-129 -390 -179 -193 -41 -255 -47 -538 -53 -213 -4 -300 -2 -411 11 -295 34
-498 112 -604 233 -68 78 -63 148 16 227 136 133 475 210 994 224 47 1 153 -4
235 -12z m-1193 -565 c140 -82 485 -158 824 -181 357 -25 772 34 988 141 44
21 82 37 84 35 6 -7 -66 -164 -108 -236 -21 -37 -60 -90 -85 -118 -51 -56
-159 -132 -189 -132 -11 0 -27 -7 -36 -15 -25 -22 -227 -71 -348 -84 -228 -24
-505 -7 -648 40 -132 43 -256 143 -378 305 -82 110 -165 264 -142 264 3 0 20
-9 38 -19z"/>
<path d="M2855 3227 l-30 -34 -167 -13 c-150 -12 -170 -11 -201 3 -26 13 -42
14 -68 7 -44 -12 -113 -70 -146 -123 l-26 -41 34 -28 33 -28 -76 0 c-79 0 -94
-7 -83 -39 8 -26 76 -34 179 -22 76 9 82 8 132 -17 29 -15 53 -30 53 -33 1
-10 -55 -19 -114 -19 -56 0 -79 -15 -73 -47 3 -16 13 -18 72 -15 37 2 100 12
139 22 l72 18 102 -31 c57 -18 103 -34 103 -37 0 -3 -26 -11 -57 -19 -75 -17
-93 -27 -93 -51 0 -26 24 -26 131 0 46 11 109 22 141 26 32 4 61 10 63 14 3 5
32 6 64 3 43 -4 78 0 127 15 38 11 114 22 169 25 55 4 171 20 258 37 87 16
173 30 190 30 43 0 59 13 55 41 -3 23 -6 24 -68 22 -36 -1 -122 -13 -192 -27
-69 -14 -156 -28 -193 -32 l-67 -7 15 30 16 29 193 13 c106 7 197 16 201 20 5
5 5 36 1 71 -9 82 -28 100 -108 101 -34 1 -72 4 -86 8 -22 7 -18 9 25 16 79
12 106 35 73 63 -15 11 -277 -30 -315 -49 -16 -9 -34 -8 -75 2 l-53 13 39 6
c46 6 67 30 47 54 -16 19 -166 23 -216 5 -27 -10 -38 -8 -93 20 -34 17 -69 31
-79 31 -10 0 -31 -15 -48 -33z m105 -52 c166 -84 387 -137 575 -136 88 0 103
-3 123 -21 48 -45 31 -50 -210 -64 -116 -7 -118 -6 -137 17 -18 23 -25 24
-136 24 -96 1 -119 4 -126 17 -5 9 -24 19 -43 22 -19 4 -49 17 -68 30 -19 12
-46 26 -61 30 -15 3 -27 12 -27 19 0 13 47 87 56 87 2 0 27 -11 54 -25z m-170
-80 c0 -26 -8 -29 -80 -38 -35 -5 -90 12 -118 36 -13 10 3 14 84 23 54 5 102
8 107 6 4 -2 7 -14 7 -27z m-226 -49 c65 -35 138 -64 206 -82 96 -26 120 -28
282 -29 129 0 178 -3 178 -12 0 -19 -63 -96 -99 -120 -26 -18 -48 -23 -96 -23
-75 0 -214 23 -310 52 -125 37 -429 190 -422 213 2 6 18 20 37 33 56 38 106
31 224 -32z m336 -36 c0 -13 -20 -13 -40 0 -12 8 -9 10 13 10 15 0 27 -4 27
-10z"/>
<path d="M1123 1016 c-48 -22 -66 -57 -61 -118 8 -77 64 -119 141 -104 90 17
123 140 54 204 -29 28 -93 36 -134 18z"/>
<path d="M730 829 l0 -170 -32 25 c-101 76 -283 51 -388 -54 -23 -23 -55 -71
-71 -107 -39 -84 -42 -198 -9 -286 105 -281 570 -286 682 -7 22 53 23 70 26
413 l3 357 -105 0 -106 0 0 -171z m-75 -309 c52 -25 75 -70 75 -148 0 -106
-53 -158 -158 -156 -54 2 -69 6 -100 31 -92 74 -74 233 33 279 44 19 103 17
150 -6z"/>
<path d="M1693 720 c-116 -25 -207 -108 -246 -224 -14 -40 -17 -91 -17 -258
l0 -208 103 0 103 0 -1 198 c0 180 2 200 21 236 49 94 184 101 248 13 19 -26
21 -45 24 -238 l3 -209 105 0 104 0 0 163 c-1 261 -20 344 -99 430 -75 81
-225 123 -348 97z"/>
<path d="M2501 720 c-51 -11 -135 -52 -170 -84 -66 -60 -102 -152 -102 -261 0
-153 57 -247 189 -312 75 -37 78 -38 191 -38 64 0 142 6 174 14 l57 12 0 96
c0 94 0 95 -23 89 -13 -3 -73 -8 -133 -12 -120 -7 -171 2 -211 39 -39 35 -30
47 24 31 170 -51 379 38 399 171 21 141 -96 252 -276 261 -41 2 -95 -1 -119
-6z m167 -206 c31 -22 28 -49 -8 -64 -34 -14 -185 -9 -200 6 -13 13 24 48 65
62 46 16 118 14 143 -4z"/>
<path d="M3272 720 c-108 -23 -203 -103 -241 -203 -19 -53 -21 -77 -21 -272
l0 -215 99 0 100 0 3 203 c3 219 8 242 60 280 14 11 48 22 75 24 62 5 110 -20
137 -73 19 -35 21 -57 21 -236 l0 -198 103 0 104 0 -4 223 -3 223 -33 66 c-36
74 -89 124 -164 158 -53 23 -172 33 -236 20z"/>
<path d="M4070 717 c-211 -48 -320 -262 -245 -479 25 -70 97 -145 175 -182 58
-27 75 -30 165 -30 92 -1 105 2 167 31 132 62 199 165 200 308 2 163 -83 293
-222 341 -59 20 -176 26 -240 11z m178 -197 c74 -34 104 -139 62 -225 -26 -54
-70 -79 -140 -80 -101 0 -160 59 -160 158 0 54 18 104 48 130 44 39 125 47
190 17z"/>
<path d="M1070 375 l0 -345 105 0 105 0 0 345 0 345 -105 0 -105 0 0 -345z"/>
<path d="M4625 513 c3 -115 8 -226 11 -248 26 -166 219 -280 390 -230 45 13
70 28 107 65 l48 49 37 -40 c55 -62 103 -83 192 -83 134 -1 232 61 288 183 14
30 28 79 31 110 9 84 -4 279 -23 344 l-17 57 -103 0 -102 0 19 -72 c27 -104
30 -329 4 -376 -49 -90 -189 -74 -217 26 -5 20 -10 124 -10 230 l0 192 -100 0
-100 0 -1 -197 c0 -217 -7 -253 -52 -287 -38 -28 -117 -28 -148 0 -43 38 -49
71 -49 284 l0 200 -105 0 -106 0 6 -207z"/>
</g>
</svg>
